Jump_normalized_Motion_pl16
version=1
nRows=12
nColumns=43
inDegrees=yes
endheader
time		pelvis_tilt		pelvis_list		pelvis_rotation		pelvis_tx		pelvis_ty		pelvis_tz		hip_flexion_r		hip_adduction_r		hip_rotation_r		knee_angle_r		ankle_angle_r		subtalar_angle_r		mtp_angle_r		hip_flexion_l		hip_adduction_l		hip_rotation_l		knee_angle_l		ankle_angle_l		subtalar_angle_l		mtp_angle_l		lumbar_extension		lumbar_bending		lumbar_rotation		neck_flexion		neck_lateral_bending		neck_rotation		arm_flex_r		arm_add_r		arm_rot_r		elbow_flex_r		pro_sup_r		wrist_flex_r		wrist_dev_r		hand_finger_flex_r		arm_flex_l		arm_add_l		arm_rot_l		elbow_flex_l		pro_sup_l		wrist_flex_l		wrist_dev_l		hand_finger_flex_l		
0.495000		3.293958		-28.561024		86.072044		0.028799		1.962316		1.674102		55.886689		5.476181		1.297610		-94.058425		23.903399		-1.888255		14.215543		59.638238		-10.692326		-3.289146		-101.124685		11.044086		4.549546		16.446646		-30.463790		0.539553		4.985930		25.649527		-1.604610		2.216710		99.740611		-15.968702		17.244917		79.422962		97.595042		-2.512849		6.039074		32.936450		101.996550		-21.572843		21.064189		84.008925		90.239791		-10.270323		2.270340		31.150439		
0.498561		3.151958		-28.378494		85.889606		0.028653		1.965315		1.667764		54.974621		5.448795		1.645485		-93.448455		23.317965		-1.562513		14.331314		58.891073		-10.708704		-3.548587		-100.607957		9.847924		4.370120		16.492179		-30.346591		0.413391		4.958179		25.164928		-1.670031		2.312850		100.566068		-15.798687		17.485037		79.115721		97.747257		-2.433226		5.962713		33.028168		102.850296		-21.581289		21.489522		83.714095		90.088905		-10.308196		2.117855		31.319653		
0.502121		3.006420		-28.261440		85.784956		0.028352		1.968127		1.661508		54.173758		5.332331		1.931380		-92.877327		22.675264		-1.259843		14.443059		58.271539		-10.644932		-3.757720		-100.119996		8.655084		4.202931		16.522024		-30.145335		0.341109		4.878904		24.574767		-1.764309		2.404179		101.377326		-15.624625		17.746323		78.785490		97.831122		-2.358143		5.919294		33.087519		103.637506		-21.558330		21.859560		83.400037		89.934137		-10.340938		2.028544		31.492315		
0.505682		2.904852		-28.241963		85.739387		0.027984		1.970594		1.655391		53.544594		5.198980		2.143432		-92.361049		21.962468		-0.997728		14.471445		57.806985		-10.550467		-3.864162		-99.702139		7.767389		4.161046		16.534249		-29.802306		0.327814		4.818108		23.837899		-1.872358		2.498332		102.141805		-15.445008		17.974494		78.392268		97.902748		-2.295257		5.971932		33.110749		104.353805		-21.409220		22.163415		82.986803		89.863334		-10.352953		2.059115		31.601307		
0.509242		2.784265		-28.155873		85.691432		0.027558		1.973218		1.649059		52.840677		5.028163		2.358605		-91.836234		21.278870		-0.853550		14.481934		57.282576		-10.444125		-4.006678		-99.259052		6.524202		4.146295		16.530164		-29.534619		0.303672		4.741933		23.116718		-1.980451		2.576131		102.866425		-15.260159		18.211520		78.008528		97.945207		-2.206270		6.023652		33.139871		105.024669		-21.307177		22.469149		82.612839		89.779403		-10.325958		2.075459		31.728592		
0.512803		2.526737		-27.803524		85.566012		0.027226		1.976470		1.642308		51.814997		4.768750		2.656025		-91.257784		20.673672		-0.967234		14.630099		56.430547		-10.283418		-4.336453		-98.722991		4.682799		3.651683		16.552108		-29.625722		0.109153		4.542586		22.674439		-2.050096		2.648715		103.579044		-15.022715		18.353940		77.710641		97.908054		-2.074660		5.940573		33.239727		105.771045		-21.338999		22.830630		82.348596		89.441038		-10.349868		1.912787		32.080913		
0.516364		2.332793		-27.591710		85.464989		0.026833		1.979229		1.635747		51.032672		4.562837		2.917751		-90.772138		19.880800		-0.998374		14.723376		55.783080		-10.147068		-4.556448		-98.259127		3.290978		3.454798		16.592087		-29.499942		-0.013682		4.436308		21.950735		-2.113573		2.719463		104.233350		-14.788566		18.492882		77.311283		97.969332		-1.945351		5.977051		33.321362		106.447709		-21.242754		23.179811		81.921009		89.240141		-10.409365		1.916651		32.410053		
0.519924		2.184184		-27.445253		85.410459		0.026516		1.981757		1.629359		50.356491		4.401677		3.140097		-90.322111		19.059165		-1.020089		14.731965		55.298533		-10.040599		-4.685839		-97.895866		2.060852		3.383863		16.612884		-29.310123		-0.099873		4.348968		21.245484		-2.217967		2.792202		104.880372		-14.525762		18.566516		76.863393		98.046961		-1.857964		6.045179		33.359740		107.102769		-21.040907		23.443035		81.420530		89.161233		-10.432239		1.982932		32.632137		
0.523485		2.004140		-27.180292		85.347238		0.026251		1.984568		1.622577		49.554266		4.236036		3.361912		-89.880904		18.117923		-1.247254		14.731683		54.644123		-9.894706		-4.832499		-97.383802		0.440519		3.098771		16.635716		-29.248356		-0.224870		4.215210		20.642386		-2.283783		2.852781		105.442157		-14.245016		18.640491		76.442748		98.155433		-1.714111		6.050464		33.413895		107.711345		-20.919780		23.731019		80.984588		89.108175		-10.408142		1.997683		32.943964		
0.527045		1.820857		-26.901269		85.304911		0.025879		1.987324		1.615803		48.768390		4.048097		3.577181		-89.463972		17.098313		-1.455432		14.745708		54.025952		-9.756172		-5.005654		-96.914635		-1.101384		2.744066		16.675758		-29.220828		-0.338744		4.054735		20.025690		-2.341501		2.917683		106.003839		-13.966909		18.700255		76.043285		98.291227		-1.568769		6.036447		33.463686		108.325095		-20.807405		24.003006		80.546131		89.073498		-10.421893		2.002095		33.297628		
0.530606		1.655082		-26.625296		85.315020		0.025455		1.990061		1.608927		47.998326		3.860379		3.746846		-89.052805		15.952153		-1.861746		14.679428		53.471739		-9.627335		-5.127778		-96.420663		-3.083087		2.571945		16.699303		-29.198115		-0.414425		3.841189		19.376881		-2.403845		2.944550		106.516230		-13.703663		18.785475		75.705860		98.430549		-1.472315		6.013691		33.462711		108.865795		-20.753983		24.242143		80.207397		89.178824		-10.448949		1.993481		33.578084		
0.534167		1.528923		-26.377741		85.358177		0.025044		1.992607		1.602144		47.311655		3.712572		3.893698		-88.709789		14.700258		-2.209035		14.565728		52.986194		-9.495068		-5.177083		-95.950049		-4.768213		2.317874		16.737448		-29.132827		-0.457681		3.657116		18.720432		-2.464323		3.003219		107.027009		-13.450770		18.882072		75.284650		98.594708		-1.415088		6.030122		33.422364		109.402670		-20.627044		24.504694		79.765789		89.352211		-10.523222		2.010553		33.793639		
